Coordinates
nRows=473
nColumns=2
inDegrees=yes
endheader
time	ankle_angle_r	
0	  5.096436	
0.0332661	  5.106415	
0.0665323	  5.111694	
0.0997984	  5.045863	
0.133065	  5.157471	
0.166331	  5.168127	
0.199597	  5.120707	
0.232863	  5.131362	
0.266129	  5.170409	
0.299395	  5.176946	
0.332661	  5.146331	
0.365927	  5.211293	
0.399194	  5.207173	
0.43246	  5.218506	
0.465726	  5.233765	
0.498992	  5.176365	
0.532258	  5.214967	
0.565524	  5.233765	
0.59879	  5.191334	
0.632056	  5.227266	
0.665323	  5.230612	
0.698589	  5.200191	
0.731855	  5.236724	
0.765121	  5.218506	
0.798387	  5.187988	
0.831653	  5.233765	
0.864919	  5.241306	
0.898185	  5.152519	
0.931452	  5.144591	
0.964718	  5.187988	
0.997984	  5.092064	
1.03125	  5.142212	
1.06452	  5.050659	
1.09778	  5.048764	
1.13105	  5.098235	
1.16431	  5.067620	
1.19758	  5.081177	
1.23085	  5.094927	
1.26411	  5.063094	
1.29738	  5.096436	
1.33065	  5.020142	
1.36391	  5.093069	
1.39718	  4.975391	
1.43044	  5.021070	
1.46371	  5.018477	
1.49698	  5.049189	
1.53024	  5.125676	
1.56351	  5.081719	
1.59677	  5.111249	
1.63004	  5.156774	
1.66331	  5.126701	
1.69657	  5.127109	
1.72984	  5.187988	
1.7631	  5.157433	
1.79637	  5.127088	
1.82964	  5.233533	
1.8629	  5.172401	
1.89617	  5.112544	
1.92944	  5.173251	
1.9627	  5.172112	
1.99597	  5.156756	
2.02923	  5.172729	
2.0625	  5.174546	
2.09577	  5.157471	
2.12903	  5.232663	
2.1623	  5.170333	
2.19556	  5.171434	
2.22883	  5.203247	
2.2621	  5.186500	
2.29536	  5.198492	
2.32863	  5.216824	
2.3619	  5.140433	
2.39516	  5.214756	
2.42843	  5.155499	
2.46169	  5.181783	
2.49496	  5.168399	
2.52823	  5.094174	
2.56149	  5.063560	
2.59476	  5.124498	
2.62802	  5.126953	
2.66129	  5.091138	
2.69456	  5.090945	
2.72782	  5.050659	
2.76109	  5.050659	
2.79435	  5.081177	
2.82762	  5.069050	
2.86089	  5.074719	
2.89415	  5.065918	
2.92742	  5.115117	
2.96069	  5.047141	
2.99395	  5.096436	
3.02722	  5.084889	
3.06048	  5.081177	
3.09375	  5.150023	
3.12702	  5.187988	
3.16028	  5.161570	
3.19355	  5.172729	
3.22681	  5.233765	
3.26008	  5.155379	
3.29335	  5.194276	
3.32661	  5.207829	
3.35988	  5.172729	
3.39315	  5.239472	
3.42641	  5.218506	
3.45968	  5.172729	
3.49294	  5.218506	
3.52621	  5.223668	
3.55948	  5.187988	
3.59274	  5.213150	
3.62601	  5.214152	
3.65927	  5.187988	
3.69254	  5.212860	
3.72581	  5.184215	
3.75907	  5.172729	
3.79234	  5.224442	
3.8256	  5.139019	
3.85887	  5.184988	
3.89214	  5.154664	
3.9254	  5.109081	
3.95867	  5.114114	
3.99194	  5.102952	
4.0252	  5.128986	
4.05847	  5.083017	
4.09173	  5.087983	
4.125	  5.020142	
4.15827	  5.058918	
4.19153	  5.089339	
4.2248	  5.004010	
4.25806	  4.997593	
4.29133	  5.050659	
4.3246	  5.020142	
4.35786	  5.065918	
4.39113	  5.088759	
4.4244	  5.005170	
4.45766	  5.011791	
4.49093	  5.103054	
4.52419	  5.065918	
4.55746	  5.104595	
4.59073	  5.118697	
4.62399	  5.072824	
4.65726	  5.118504	
4.69052	  5.179442	
4.72379	  5.155443	
4.75706	  5.126953	
4.79032	  5.224928	
4.82359	  5.172729	
4.85685	  5.142212	
4.89012	  5.184994	
4.92339	  5.181953	
4.95665	  5.160028	
4.98992	  5.166887	
5.02319	  5.187988	
5.05645	  5.199286	
5.08972	  5.229610	
5.12298	  5.178185	
5.15625	  5.193347	
5.18952	  5.223768	
5.22278	  5.182823	
5.25605	  5.218453	
5.28931	  5.218506	
5.32258	  5.183113	
5.35585	  5.177508	
5.38911	  5.090540	
5.42238	  5.126953	
5.45565	  5.137723	
5.48891	  5.192380	
5.52218	  5.070213	
5.55544	  5.186453	
5.58871	  5.150415	
5.62198	  5.096436	
5.65524	  5.157471	
5.68851	  5.081177	
5.72177	  5.027572	
5.75504	  5.089199	
5.78831	  5.130475	
5.82157	  5.028550	
5.85484	  5.093107	
5.8881	  5.111694	
5.92137	  5.065918	
5.95464	  5.053698	
5.9879	  5.136329	
6.02117	  5.084022	
6.05444	  5.142212	
6.0877	  5.187988	
6.12097	  5.129508	
6.15423	  5.170271	
6.1875	  5.236126	
6.22077	  5.109429	
6.25403	  5.168393	
6.2873	  5.218506	
6.32056	  5.187988	
6.35383	  5.193623	
6.3871	  5.205029	
6.42036	  5.230395	
6.45363	  5.220094	
6.4869	  5.203247	
6.52016	  5.185199	
6.55343	  5.217208	
6.58669	  5.217305	
6.61996	  5.187988	
6.65323	  5.203247	
6.68649	  5.172729	
6.71976	  5.158285	
6.75302	  5.217070	
6.78629	  5.156849	
6.81956	  5.142212	
6.85282	  5.157043	
6.88609	  5.095773	
6.91935	  5.096436	
6.95262	  5.127229	
6.98589	  5.111653	
7.01915	  5.096324	
7.05242	  5.096588	
7.08569	  5.050659	
7.11895	  5.142212	
7.15222	  5.111694	
7.18548	  5.019602	
7.21875	  5.066554	
7.25202	  5.050659	
7.28528	  5.034571	
7.31855	  5.065918	
7.35181	  5.021164	
7.38508	  4.988505	
7.41835	  4.992056	
7.45161	  5.111694	
7.48488	  5.035400	
7.51815	  5.050659	
7.55141	  5.123748	
7.58468	  5.125254	
7.61794	  5.077585	
7.65121	  5.142212	
7.68448	  5.164772	
7.71774	  5.153298	
7.75101	  5.220689	
7.78427	  5.111694	
7.81754	  5.139836	
7.85081	  5.200774	
7.88407	  5.175299	
7.91734	  5.182656	
7.9506	  5.203247	
7.98387	  5.172729	
8.01714	  5.212594	
8.0504	  5.215453	
8.08367	  5.181689	
8.11694	  5.230518	
8.1502	  5.233765	
8.18347	  5.231825	
8.21673	  5.238414	
8.25	  5.226499	
8.28327	  5.157471	
8.31653	  5.214679	
8.3498	  5.176652	
8.38306	  5.150251	
8.41633	  5.206156	
8.4496	  5.146425	
8.48286	  5.065918	
8.51613	  5.085583	
8.5494	  5.098185	
8.58266	  5.050659	
8.61593	  5.146908	
8.64919	  5.167936	
8.68246	  5.096436	
8.71573	  5.152185	
8.74899	  5.152387	
8.78226	  5.091256	
8.81552	  5.101712	
8.84879	  5.065918	
8.88206	  5.054978	
8.91532	  5.046534	
8.94859	  5.111694	
8.98185	  5.035400	
9.01512	  5.056516	
9.04839	  5.081177	
9.08165	  5.026192	
9.11492	  5.090289	
9.14819	  5.114466	
9.18145	  5.004883	
9.21472	  5.037786	
9.24798	  5.057193	
9.28125	  5.042031	
9.31452	  5.074450	
9.34778	  5.050659	
9.38105	  4.989624	
9.41431	  5.034176	
9.44758	  5.027256	
9.48085	  5.027352	
9.51411	  5.095791	
9.54738	  5.034949	
9.58065	  5.012641	
9.61391	  5.027739	
9.64718	  4.974365	
9.68044	  5.004883	
9.71371	  5.020657	
9.74698	  5.012866	
9.78024	  4.983348	
9.81351	  5.028319	
9.84677	  4.982639	
9.88004	  4.996512	
9.91331	  5.072710	
9.94657	  4.989624	
9.97984	  4.998285	
10.0131	  5.048403	
10.0464	  5.013737	
10.0796	  4.989624	
10.1129	  5.029189	
10.1462	  4.980480	
10.1794	  4.986401	
10.2127	  5.050659	
10.246	  4.999058	
10.2792	  5.035400	
10.3125	  5.035400	
10.3458	  5.050659	
10.379	  5.009266	
10.4123	  5.126953	
10.4456	  5.091666	
10.4788	  5.020142	
10.5121	  5.066023	
10.5454	  5.162425	
10.5786	  5.142212	
10.6119	  5.137451	
10.6452	  5.131618	
10.6784	  5.162038	
10.7117	  5.196930	
10.745	  5.120443	
10.7782	  5.131231	
10.8115	  5.172729	
10.8448	  5.165639	
10.878	  5.199259	
10.9113	  5.226288	
10.9446	  5.214712	
10.9778	  5.237462	
11.0111	  5.214905	
11.0444	  5.172729	
11.0776	  5.233765	
11.1109	  5.237075	
11.1442	  5.175943	
11.1774	  5.230647	
11.2107	  5.221527	
11.244	  5.187988	
11.2772	  5.224161	
11.3105	  5.215775	
11.3437	  5.050659	
11.377	  5.200710	
11.4103	  5.157471	
11.4435	  5.124609	
11.4768	  5.111694	
11.5101	  5.124803	
11.5433	  5.052713	
11.5766	  5.124996	
11.6099	  5.140351	
11.6431	  5.062390	
11.6764	  5.098103	
11.7097	  5.096436	
11.7429	  5.047712	
11.7762	  5.081177	
11.8095	  5.065918	
11.8427	  5.053027	
11.876	  5.094262	
11.9093	  5.110704	
11.9425	  5.126060	
11.9758	  5.173526	
12.0091	  5.186588	
12.0423	  5.202040	
12.0756	  5.157978	
12.1089	  5.157471	
12.1421	  5.126953	
12.1754	  5.172729	
12.2087	  5.142212	
12.2419	  5.157447	
12.2752	  5.218652	
12.3085	  5.157640	
12.3417	  5.187722	
12.375	  5.219233	
12.4083	  5.188448	
12.4415	  5.128067	
12.4748	  5.218506	
12.5081	  5.158971	
12.5413	  5.187988	
12.5746	  5.175560	
12.6079	  5.172729	
12.6411	  5.173866	
12.6744	  5.218506	
12.7077	  5.142212	
12.7409	  5.200393	
12.7742	  5.175776	
12.8075	  5.159091	
12.8407	  5.171012	
12.874	  5.081177	
12.9073	  5.037311	
12.9405	  5.096436	
12.9738	  5.094332	
13.0071	  5.055060	
13.0403	  5.028509	
13.0736	  5.094042	
13.1069	  5.068408	
13.1401	  5.020142	
13.1734	  5.038084	
13.2067	  5.035400	
13.2399	  5.004883	
13.2732	  5.053633	
13.3065	  5.062848	
13.3397	  4.989624	
13.373	  5.111694	
13.4062	  5.059197	
13.4395	  5.050659	
13.4728	  5.169176	
13.506	  5.103737	
13.5393	  5.149976	
13.5726	  5.172729	
13.6058	  5.138271	
13.6391	  5.168692	
13.6724	  5.187988	
13.7056	  5.157471	
13.7389	  5.205523	
13.7722	  5.207671	
13.8054	  5.198726	
13.8387	  5.194012	
13.872	  5.224336	
13.9052	  5.203247	
13.9385	  5.249023	
13.9718	  5.218506	
14.005	  5.193089	
14.0383	  5.243826	
14.0716	  5.249023	
14.1048	  5.197856	
14.1381	  5.253307	
14.1714	  5.243439	
14.2046	  5.199350	
14.2379	  5.249023	
14.2712	  5.233765	
14.3044	  5.221822	
14.3377	  5.255091	
14.371	  5.267212	
14.4042	  5.200511	
14.4375	  5.240122	
14.4708	  5.233765	
14.504	  5.203247	
14.5373	  5.249023	
14.5706	  5.264282	
14.6038	  5.210088	
14.6371	  5.249023	
14.6704	  5.241989	
14.7036	  5.203247	
14.7369	  5.248220	
14.7702	  5.264892	
14.8034	  5.210669	
14.8367	  5.218506	
14.87	  5.233765	
14.9032	  5.226217	
14.9365	  5.225956	
14.9698	  5.219057	
15.003	  5.195990	
15.0363	  5.225667	
15.0696	  5.227832	
15.1028	  5.179697	
15.1361	  5.233765	
15.1694	  5.174440	
15.2026	  5.170825	
15.2359	  5.211926	
15.2692	  5.135728	
15.3024	  5.126953	
15.3357	  5.138599	
15.369	  5.050659	
15.4022	  5.081177	
15.4355	  5.117695	
15.4687	  5.105791	
15.502	  5.014335	
15.5353	  5.090725	
15.5685	  5.060304	
15.6018	  5.054884	
15.6351	  5.111694	
15.6683	  5.111694	
15.7016	  5.121726	
